<svg width="145" height="17" viewBox="0 0 145 17" fill="none" xmlns="http://www.w3.org/2000/svg">
<g clip-path="url(#clip0_299_1538)">
<rect width="145" height="16.4151" fill="white"/>
<path d="M35.0867 12.6184L35.0855 1.38649C35.0855 0.631771 34.4516 0.0194766 33.6727 0.0194766C32.8926 0.0194766 32.2575 0.631771 32.2575 1.38649L32.2525 12.6999C32.2525 12.6999 32.2688 13.339 31.8262 13.4973C31.8262 13.4973 31.4061 13.7237 30.8085 13.1345L17.9252 0.93244C17.4826 0.500304 16.8287 0 15.7636 0C14.5459 0 13.7157 0.790018 13.5594 0.944613L0.419789 14.0426C-0.260322 14.7876 0.0147228 15.5691 0.341026 15.9087C1.1174 16.7206 2.10757 16.2008 2.16382 16.1668C5.3431 14.3737 11.4391 10.185 23.7049 10.1984L28.5606 14.8351C28.9495 15.2148 30.7848 17.0116 33.1602 16.028C35.3243 15.1345 35.0867 12.8156 35.0867 12.6184ZM15.7986 2.6622L21.0157 7.68107C15.3572 7.68959 9.61254 9.5776 8.22232 10.1108L15.7986 2.6622Z" fill="#0066FF"/>
<path d="M64.6644 4.77783C64.6644 2.1485 62.484 0.0170288 59.7961 0.0170288C59.7611 0.0170288 43.9985 0.0231152 43.9985 0.0231152C41.028 0.0231152 38.8376 1.78574 38.8376 5.06755V14.9044C38.8376 15.6677 39.4715 16.2873 40.2491 16.2873C41.0293 16.2873 41.6644 15.6677 41.6644 14.9044V9.5362C48.1542 9.5362 55.0966 10.8314 62.279 16.0219C62.5153 16.1923 63.6442 16.8363 64.3956 15.9781C65.0657 15.2136 64.6269 14.3262 64.0255 13.843C61.1888 11.5715 56.4643 9.5362 56.4643 9.5362H59.5635C62.2515 9.53742 64.6644 7.40838 64.6644 4.77783ZM41.6656 6.76688V5.06146C41.6694 4.37735 41.9031 2.78757 43.9997 2.78757C43.9997 2.78757 59.5748 2.78392 59.6086 2.78392C60.735 2.78392 61.8377 3.60559 61.8377 4.77905C61.8377 6.09372 60.7362 6.77296 59.6086 6.77296C59.5735 6.77296 41.6656 6.76688 41.6656 6.76688Z" fill="#0066FF"/>
<path d="M113.812 0.0182495L68.1474 0.0255532C67.3673 0.0255532 66.7322 0.639065 66.7322 1.39256C66.7322 2.14728 67.3673 2.75836 68.1474 2.75836C68.1474 2.75836 78.9817 2.74984 79.0642 2.74984C82.1297 2.74984 82.586 5.04686 82.586 6.2544V14.9556C82.586 15.7091 83.2186 16.3226 84 16.3226C84.7776 16.3226 85.414 15.7103 85.414 14.9556V6.2544C85.414 3.72854 84.5288 2.74984 84.5288 2.74984H113.812C114.59 2.74984 115.226 2.13633 115.226 1.38283C115.226 0.630544 114.59 0.0182495 113.812 0.0182495Z" fill="#0066FF"/>
<path d="M113.812 13.5971L95.0881 13.5861C93.9354 13.5861 93.0915 12.6695 93.0915 11.6275C93.0915 10.5855 93.9492 9.67132 95.0881 9.67132L113.809 9.66767C114.589 9.66767 115.224 9.05659 115.224 8.30431C115.224 7.55203 114.589 6.94095 113.809 6.94095C113.809 6.94095 94.9893 6.94217 94.9518 6.94217C92.3239 6.94217 90.2161 9.0785 90.2161 11.6275C90.2161 14.1765 92.3014 16.3128 94.9518 16.3128L113.812 16.3226C114.59 16.3226 115.226 15.7127 115.226 14.9592C115.226 14.2081 114.59 13.5971 113.812 13.5971Z" fill="#0066FF"/>
<path d="M143.775 13.5946L123.904 9.10529L144.019 2.68045C144.759 2.44673 145.17 1.67011 144.931 0.951908C144.694 0.236144 143.759 -0.159473 143.018 0.0742456L121.426 6.90443V1.395C121.426 0.641501 120.761 0.0279887 119.981 0.0279887C119.202 0.0279887 118.534 0.640283 118.534 1.395V5.69932C118.534 9.16737 119.707 10.9994 123.835 11.8612L143.26 16.2702C144.02 16.4346 144.731 15.9659 144.899 15.2307C145.066 14.4942 144.535 13.759 143.775 13.5946Z" fill="#0066FF"/>
</g>
<defs>
<clipPath id="clip0_299_1538">
<rect width="145" height="16.4151" fill="white"/>
</clipPath>
</defs>
</svg>
